<svg width="124" height="78" viewBox="0 0 124 78" fill="none" xmlns="http://www.w3.org/2000/svg">
<path d="M61.3268 77.113C60.9065 77.113 60.5141 77.0004 60.1496 76.8032L56.4219 74.5773C55.8612 74.2672 56.1416 74.1546 56.3099 74.0983C57.0665 73.8447 57.2067 73.7882 57.9915 73.3376C58.0756 73.2811 58.1879 73.3094 58.2718 73.3657L61.1308 75.0844C61.2429 75.1407 61.3831 75.1407 61.467 75.0844L72.6506 68.5756C72.7626 68.5193 72.8189 68.4064 72.8189 68.2657V55.2764C72.8189 55.1352 72.7626 55.0228 72.6506 54.9663L61.467 48.4857C61.3549 48.4292 61.2147 48.4292 61.1308 48.4857L49.9472 54.9663C49.8352 55.0226 49.7789 55.1635 49.7789 55.2761V68.2655C49.7789 68.3784 49.8352 68.5191 49.9472 68.5756L53.0024 70.3507C54.6561 71.1959 55.6931 70.2098 55.6931 69.2236V56.4032C55.6931 56.2343 55.8333 56.0651 56.0295 56.0651H57.4589C57.6272 56.0651 57.7953 56.206 57.7953 56.4032V69.2236C57.7953 71.4495 56.59 72.7457 54.4878 72.7457C53.8432 72.7457 53.3388 72.7457 51.9092 72.0411L48.9662 70.3507C48.2375 69.9282 47.7891 69.139 47.7891 68.2938V55.3044C47.7891 54.4592 48.2375 53.67 48.9662 53.2475L60.1496 46.7387C60.8505 46.3443 61.8036 46.3443 62.5042 46.7387L73.6876 53.2475C74.4163 53.67 74.865 54.4592 74.865 55.3044V68.2938C74.865 69.139 74.4163 69.9282 73.6876 70.3507L62.5042 76.8595C62.1397 77.0287 61.7194 77.113 61.327 77.113H61.3268ZM64.7744 68.1811C59.8695 68.1811 58.8604 65.927 58.8604 64.011C58.8604 63.8419 59.0006 63.6729 59.1968 63.6729H60.6543C60.8224 63.6729 60.9625 63.7855 60.9625 63.9547C61.1869 65.448 61.8315 66.1806 64.8025 66.1806C67.1569 66.1806 68.1662 65.6452 68.1662 64.3772C68.1662 63.6446 67.8856 63.1095 64.2139 62.7431C61.1587 62.433 59.2528 61.7569 59.2528 59.3056C59.2528 57.0232 61.159 55.6706 64.3541 55.6706C67.9416 55.6706 69.7076 56.9105 69.932 59.6152C69.932 59.7 69.9038 59.7844 69.8478 59.869C69.7916 59.9253 69.7077 59.9816 69.6235 59.9816H68.166C68.0258 59.9816 67.8856 59.869 67.8577 59.7281C67.5214 58.1785 66.6524 57.6712 64.3541 57.6712C61.7754 57.6712 61.467 58.573 61.467 59.249C61.467 60.0662 61.8315 60.3198 65.307 60.7705C68.7546 61.2216 70.3804 61.8696 70.3804 64.2926C70.3523 66.7723 68.3343 68.1811 64.7744 68.1811Z" fill="#eeeeee"/>
<path d="M26.6275 26.3109C26.6275 25.8038 26.3472 25.3245 25.8987 25.071L14.0145 18.196C13.8181 18.0831 13.594 18.0268 13.3699 17.9985H13.2576C13.0335 17.9985 12.8092 18.0831 12.613 18.196L0.72876 25.071C0.280106 25.3245 0 25.8036 0 26.3109L0.0281318 44.7947C0.0281318 45.0482 0.168306 45.3018 0.39239 45.4146C0.616718 45.5555 0.896823 45.5555 1.09326 45.4146L8.15653 41.3572C8.60494 41.1036 8.88529 40.6246 8.88529 40.1175V31.4672C8.88529 30.9601 9.1654 30.481 9.61405 30.2275L12.613 28.4805C12.8373 28.3395 13.0895 28.283 13.3418 28.283C13.594 28.283 13.8462 28.3395 14.0426 28.4805L17.0416 30.2275C17.4902 30.481 17.7703 30.9598 17.7703 31.4672V40.1175C17.7703 40.6246 18.0507 41.1036 18.4991 41.3572L25.5624 45.4146C25.7867 45.5555 26.0668 45.5555 26.2911 45.4146C26.5155 45.3018 26.6556 45.0482 26.6556 44.7947L26.6275 26.3109ZM83.7504 0.867372C83.5263 0.754496 83.246 0.754496 83.0495 0.867372C82.8254 1.00829 82.6853 1.23355 82.6853 1.4871V19.8021C82.6853 19.9711 82.6013 20.14 82.433 20.2529C82.265 20.3373 82.0967 20.3373 81.9286 20.2529L78.9576 18.5342C78.7397 18.4095 78.4934 18.3439 78.2427 18.3439C77.9921 18.3439 77.7457 18.4095 77.5279 18.5342L65.6437 25.4374C65.1953 25.691 64.9149 26.17 64.9149 26.6771V40.4554C64.9149 40.9625 65.1953 41.4418 65.6437 41.6953L77.5279 48.5986C77.7457 48.7233 77.9921 48.7888 78.2427 48.7888C78.4934 48.7888 78.7397 48.7233 78.9576 48.5986L90.8418 41.6953C91.2902 41.4418 91.5705 40.9627 91.5705 40.4554V6.10821C91.5705 5.57284 91.2902 5.09403 90.8418 4.84024L83.7506 0.867372H83.7504ZM82.6574 35.9191C82.6574 36.06 82.6013 36.1726 82.4891 36.229L78.425 38.5957C78.3682 38.6236 78.3059 38.638 78.2427 38.638C78.1796 38.638 78.1172 38.6236 78.0605 38.5957L73.9964 36.229C73.8841 36.1726 73.8281 36.0317 73.8281 35.9191V31.1854C73.8281 31.0444 73.8841 30.9318 73.9964 30.8755L78.0605 28.5085C78.1172 28.4807 78.1796 28.4662 78.2427 28.4662C78.3059 28.4662 78.3682 28.4807 78.425 28.5085L82.4891 30.8755C82.6013 30.9316 82.6574 31.0727 82.6574 31.1854V35.9191ZM123.299 31.0727C123.748 30.8192 124 30.3401 124 29.8328V26.4799C124 25.9728 123.72 25.4937 123.299 25.2402L111.499 18.3652C111.281 18.2406 111.035 18.175 110.784 18.175C110.534 18.175 110.287 18.2406 110.07 18.3652L98.1854 25.2682C97.7368 25.5218 97.4567 26.0008 97.4567 26.5082V40.2864C97.4567 40.7935 97.7368 41.2726 98.1854 41.5261L109.985 48.2885C110.434 48.542 110.966 48.542 111.387 48.2885L118.534 44.2878C118.759 44.1749 118.899 43.9214 118.899 43.6679C118.899 43.4143 118.759 43.1608 118.534 43.0479L106.594 36.1446C106.37 36.0039 106.23 35.7784 106.23 35.5249V31.2139C106.23 30.9603 106.37 30.7068 106.594 30.5939L110.322 28.4524C110.431 28.3834 110.557 28.3468 110.686 28.3468C110.815 28.3468 110.941 28.3834 111.051 28.4524L114.778 30.5939C115.003 30.7348 115.143 30.9601 115.143 31.2139V34.5951C115.143 34.8486 115.283 35.1021 115.507 35.2148C115.731 35.3557 116.012 35.3557 116.236 35.2148L123.299 31.0727Z" fill="#eeeeee"/>
<path d="M110.602 30.4245C110.644 30.397 110.692 30.3823 110.742 30.3823C110.792 30.3823 110.841 30.397 110.882 30.4245L113.153 31.7488C113.237 31.8049 113.293 31.8895 113.293 32.0023V34.6509C113.293 34.7635 113.237 34.8481 113.153 34.9044L110.882 36.2287C110.841 36.2562 110.792 36.2709 110.742 36.2709C110.692 36.2709 110.644 36.2562 110.602 36.2287L108.332 34.9044C108.247 34.8481 108.191 34.7635 108.191 34.6509V32.0023C108.191 31.8895 108.247 31.8049 108.332 31.7488L110.602 30.4245Z" fill="#eeeeee"/>
<mask id="mask0" mask-type="alpha" maskUnits="userSpaceOnUse" x="32" y="18" width="28" height="31">
<path d="M46.4997 18.4214C46.2819 18.2967 46.0356 18.2312 45.785 18.2312C45.5344 18.2312 45.2881 18.2967 45.0703 18.4214L33.2702 25.2678C32.8216 25.5214 32.5693 26.0004 32.5693 26.5075V40.2297C32.5693 40.7368 32.8497 41.2158 33.2702 41.4694L45.0703 48.3163C45.2881 48.4409 45.5344 48.5065 45.785 48.5065C46.0356 48.5065 46.2819 48.4409 46.4997 48.3163L58.3 41.4694C58.7484 41.2158 59.0009 40.7368 59.0009 40.2297V26.5078C59.0009 26.0007 58.7203 25.5216 58.3 25.2681L46.4997 18.4214Z" fill="#eeeeee"/>
</mask>
<g mask="url(#mask0)">
<path opacity="0.6" d="M46.4997 18.4214C46.2819 18.2967 46.0356 18.2312 45.785 18.2312C45.5344 18.2312 45.2881 18.2967 45.0703 18.4214L33.2702 25.2678C32.8216 25.5214 32.5693 26.0004 32.5693 26.5075V40.2297C32.5693 40.7368 32.8497 41.2158 33.2702 41.4694L45.0703 48.3163C45.2881 48.4409 45.5344 48.5065 45.785 48.5065C46.0356 48.5065 46.2819 48.4409 46.4997 48.3163L58.3 41.4694C58.7484 41.2158 59.0009 40.7368 59.0009 40.2297V26.5078C59.0009 26.0007 58.7203 25.5216 58.3 25.2681L46.4997 18.4214Z" fill="#eeeeee"/>
<path d="M58.3276 25.2679L46.4715 18.4212C46.355 18.362 46.2329 18.3148 46.107 18.2803L32.8213 41.1599C32.9313 41.2949 33.0643 41.4094 33.2139 41.498L45.07 48.345C45.4064 48.5422 45.7988 48.5985 46.163 48.4856L58.6361 25.55C58.552 25.4373 58.4397 25.3525 58.3276 25.2681V25.2679Z" fill="#02020"/>
<path fill-rule="evenodd" clip-rule="evenodd" d="M58.3555 41.4697C58.6919 41.2725 58.9441 40.9344 59.0564 40.5682L46.0506 18.2522C45.7142 18.1959 45.3497 18.2239 45.0417 18.4212L33.2695 25.2401L45.9664 48.5139C46.1511 48.4835 46.3304 48.4266 46.499 48.345L58.3553 41.47L58.3555 41.4697Z" fill="#eeeeee"/>
<path fill-rule="evenodd" clip-rule="evenodd" d="M58.3559 41.4696L46.5277 48.3166C46.3607 48.4022 46.1807 48.4593 45.9951 48.4856L46.2194 48.9083L59.3369 41.2726V41.1035L59.0005 40.5398C58.9445 40.9343 58.6923 41.2724 58.3559 41.4696Z" fill="url(#paint0_linear)"/>
<path fill-rule="evenodd" clip-rule="evenodd" d="M58.3559 41.4696L46.5277 48.3166C46.3607 48.4022 46.1807 48.4593 45.9951 48.4856L46.2194 48.9083L59.3369 41.2726V41.1035L59.0005 40.5398C58.9445 40.9343 58.6923 41.2724 58.3559 41.4696Z" fill="url(#paint1_linear)"/>
</g>
<defs>
<linearGradient id="paint0_linear" x1="32.1382" y1="44.7471" x2="59.4432" y2="44.7471" gradientUnits="userSpaceOnUse">
<stop offset="0.09192" stop-color="#6CC04A"/>
<stop offset="0.2864" stop-color="#66B848"/>
<stop offset="0.5968" stop-color="#54A044"/>
<stop offset="0.8624" stop-color="#41873F"/>
</linearGradient>
<linearGradient id="paint1_linear" x1="63.4212" y1="22.8764" x2="56.4332" y2="59.3013" gradientUnits="userSpaceOnUse">
<stop stop-color="#41873F"/>
<stop offset="0.3288" stop-color="#418B3D"/>
<stop offset="0.6352" stop-color="#419637"/>
<stop offset="0.9319" stop-color="#3FA92D"/>
<stop offset="1" stop-color="#3FAE2A"/>
</linearGradient>
</defs>
</svg>
