<svg width="87" height="91" viewBox="0 0 87 91" fill="none" xmlns="http://www.w3.org/2000/svg">
<path d="M86.7698 54.5116C86.2468 52.9156 84.8771 51.804 83.1056 51.5372C82.2703 51.4116 81.3138 51.4651 80.1817 51.7003C78.2086 52.1106 76.7448 52.2668 75.6765 52.297C79.7089 45.436 82.9877 37.6122 84.8754 30.2473C87.9277 18.3384 86.2966 12.9132 84.3906 10.4592C79.3464 3.96393 71.9872 0.474587 63.1089 0.367819C58.3727 0.309458 54.2149 1.25183 52.0459 1.92951C50.0265 1.57041 47.8551 1.36992 45.5768 1.33285C41.306 1.26419 37.5325 2.20243 34.3081 4.13077C32.5231 3.52244 29.6581 2.66486 26.3496 2.11764C18.5683 0.830249 12.2967 1.83338 7.70939 5.09923C2.15459 9.0534 -0.42046 15.9236 0.0557827 25.5189C0.207036 28.5654 1.89807 37.8346 4.56067 46.6252C6.09092 51.678 7.72268 55.8738 9.41065 59.0975C11.8045 63.6686 14.3659 66.3604 17.2414 67.3271C18.8531 67.8682 21.7814 68.2472 24.8613 65.6621C25.2517 66.1386 25.7725 66.612 26.4637 67.0518C27.3416 67.6097 28.415 68.0656 29.4871 68.3358C33.3505 69.309 36.9694 69.0656 40.0568 67.7013C40.0758 68.2548 40.0905 68.7834 40.1027 69.24C40.1232 69.9805 40.1436 70.7066 40.1705 71.3857C40.3535 75.977 40.6635 79.547 41.5819 82.0449C41.6323 82.1822 41.7001 82.3917 41.7716 82.6138C42.2298 84.0275 42.996 86.3942 44.9452 88.2477C46.9636 90.1678 49.4052 90.7566 51.6412 90.7566C52.7627 90.7566 53.8327 90.6083 54.7712 90.4057C58.1165 89.6831 61.9159 88.5825 64.6643 84.6386C67.2629 80.9103 68.5261 75.2949 68.7546 66.4469C68.7843 66.1966 68.8115 65.9577 68.8378 65.7301L68.8923 65.2625L69.5044 65.3168L69.6622 65.3274C73.0694 65.4839 77.2357 64.7558 79.7944 63.558C81.8162 62.6126 88.2952 59.1654 86.7698 54.5116Z" fill="white"/>
<path d="M80.9437 55.4165C70.8124 57.5227 70.1158 54.066 70.1158 54.066C80.8125 38.0704 85.2843 17.7664 81.4257 12.7971C70.8979 -0.758224 52.6743 5.65262 52.3701 5.81878L52.2723 5.83663C50.2706 5.4178 48.0308 5.16857 45.513 5.12703C40.929 5.0515 37.4516 6.3382 34.8128 8.35476C34.8128 8.35476 2.30362 -5.14187 3.81581 25.3291C4.1374 31.8113 13.0354 74.3778 23.6484 61.5208C27.5275 56.8192 31.2757 52.8441 31.2757 52.8441C33.1371 54.0903 35.3657 54.7261 37.702 54.4978L37.8835 54.3427C37.827 54.9263 37.8529 55.4972 37.9561 56.1731C35.222 59.2515 36.0256 59.7919 30.56 60.9258C25.0294 62.0745 28.2783 64.1193 30.3996 64.6541C32.9712 65.3019 38.9205 66.2199 42.9403 60.5489L42.7802 61.196C43.8512 62.0608 44.6034 66.8204 44.4773 71.1353C44.3513 75.45 44.2672 78.4123 45.111 80.7262C45.9555 83.0401 46.7966 88.2463 53.9818 86.6949C59.9852 85.3982 63.0965 82.0383 63.5294 76.4335C63.8364 72.4492 64.5317 73.0383 64.5753 69.4758L65.1329 67.7895C65.7758 62.3883 65.2351 60.6457 68.9337 61.4562L69.833 61.5359C72.5549 61.6605 76.1182 61.0944 78.2095 60.115C82.7124 58.0091 85.3831 54.4927 80.943 55.4165H80.9437Z" fill="#eeeeee"/>
<path d="M36.7157 28.2279C35.8028 28.0998 34.976 28.2182 34.5576 28.5375C34.3226 28.717 34.2497 28.9251 34.2299 29.0682C34.1775 29.4476 34.4411 29.8671 34.6033 30.0833C35.0618 30.6958 35.7316 31.1166 36.3945 31.2093C36.4906 31.2231 36.5863 31.2292 36.6813 31.2292C37.7868 31.2292 38.7921 30.3618 38.8806 29.7215C38.9913 28.9196 37.8362 28.3851 36.7157 28.2282V28.2279ZM66.9609 28.2533C66.8737 27.6247 65.7638 27.4455 64.7105 27.5931C63.6585 27.7407 62.6386 28.2193 62.7238 28.8492C62.7919 29.3391 63.6698 30.1753 64.7088 30.1753C64.7967 30.1753 64.8853 30.1695 64.9745 30.1568C65.6681 30.06 66.177 29.6161 66.4189 29.3604C66.7868 28.9704 67.0001 28.5358 66.9609 28.2533Z" fill="#000"/>
<path d="M84.3143 55.1772C83.9279 54 82.6845 53.6214 80.6188 54.0512C74.4852 55.3269 72.2886 54.4433 71.5674 53.908C76.335 46.5888 80.257 37.7412 82.3728 29.4865C83.3751 25.5763 83.9286 21.9448 83.9739 18.9848C84.024 15.7362 83.4749 13.3488 82.3425 11.8905C77.777 6.0114 71.0762 2.85782 62.9651 2.7713C57.3888 2.70814 52.6775 4.14623 51.7642 4.55065C49.8408 4.06865 47.7441 3.77272 45.4613 3.73496C41.2753 3.66664 37.6568 4.67664 34.661 6.73543C33.3597 6.24725 29.9967 5.0838 25.8839 4.41607C18.7736 3.26257 13.1235 4.13662 9.0914 7.01522C4.28026 10.4503 2.05916 16.5906 2.48941 25.2652C2.63419 28.1836 4.28435 37.1617 6.88835 45.7597C10.3161 57.0764 14.0422 63.4828 17.9625 64.8007C18.4214 64.9549 18.9504 65.0627 19.534 65.0627C20.9641 65.0627 22.7175 64.4131 24.5417 62.2029C26.7667 59.513 29.0684 56.8884 31.4438 54.3324C32.985 55.1659 34.678 55.6314 36.4096 55.6781C36.413 55.7238 36.4174 55.7694 36.4215 55.8147C36.1235 56.1729 35.8316 56.5363 35.546 56.9047C34.3462 58.4396 34.0965 58.7593 30.2345 59.5605C29.1358 59.7892 26.2181 60.3951 26.1752 62.4563C26.1288 64.7084 29.6243 65.6542 30.0226 65.7544C31.4104 66.1046 32.7475 66.2773 34.0226 66.2773C37.1236 66.2773 39.8527 65.2501 42.0336 63.2627C41.9665 71.2912 42.2986 79.2023 43.2552 81.6126C44.0387 83.5859 45.9525 88.4083 51.9979 88.408C52.885 88.408 53.8613 88.3039 54.9354 88.0719C61.2448 86.709 63.9847 83.8987 65.0445 77.7031C65.6117 74.3919 66.5849 66.4853 67.0428 62.2441C68.0089 62.548 69.2526 62.687 70.5972 62.6866C73.4016 62.6866 76.6375 62.0862 78.6668 61.137C80.9465 60.07 85.0603 57.452 84.3143 55.1772ZM69.2891 26.5183C69.2683 27.7703 69.0973 28.907 68.9161 30.0934C68.7209 31.3695 68.5192 32.6888 68.4685 34.2903C68.4184 35.8489 68.6115 37.4693 68.7982 39.0365C69.1757 42.2017 69.563 45.4604 68.0637 48.6758C67.8147 48.2311 67.5929 47.7714 67.3995 47.2995C67.2131 46.8442 66.8084 46.113 66.248 45.1009C64.0681 41.1612 58.9634 31.9353 61.5766 28.1706C62.355 27.0501 64.3305 25.8979 69.2891 26.5183ZM63.2785 5.3066C70.5461 5.4683 76.2951 8.2082 80.3653 13.4498C83.4871 17.4702 80.0495 35.7638 70.0978 51.5458C69.9977 51.4175 69.8971 51.2897 69.796 51.1623L69.67 51.0037C72.2416 46.7237 71.7388 42.4891 71.2912 38.7347C71.1072 37.194 70.9335 35.7387 70.9778 34.3717C71.0234 32.9229 71.2135 31.6802 71.3974 30.4786C71.6233 28.998 71.8532 27.4658 71.7899 25.6597C71.8372 25.4702 71.8563 25.2463 71.8314 24.9806C71.6696 23.2487 69.7074 18.0651 65.7081 13.3735C63.5204 10.8073 60.3301 7.93562 55.9741 5.9987C57.8477 5.60733 60.4098 5.2424 63.2785 5.3066ZM22.6112 60.5853C20.6013 63.0207 19.2134 62.5538 18.757 62.4007C15.783 61.401 12.3321 55.0663 9.28967 45.0213C6.65705 36.3295 5.11862 27.5894 4.99667 25.1385C4.6124 17.3874 6.47684 11.9856 10.5385 9.08259C17.1487 4.35874 28.0164 7.18618 32.3834 8.62016C32.3207 8.68264 32.2553 8.74101 32.1933 8.80452C25.0271 16.0977 25.1971 28.5582 25.2148 29.32C25.2142 29.6138 25.2387 30.0299 25.2721 30.6022C25.3954 32.6981 25.625 36.5987 25.0118 41.016C24.4422 45.1208 25.6979 49.1385 28.4562 52.0391C28.7393 52.3362 29.0368 52.619 29.3477 52.8864C28.12 54.2115 25.4516 57.142 22.6112 60.5853ZM30.2689 50.2886C28.0457 47.9507 27.036 44.6989 27.4983 41.3661C28.1455 36.7 27.9067 32.6359 27.7783 30.4525C27.7603 30.147 27.7442 29.8792 27.735 29.6681C28.7819 28.7326 33.6332 26.1132 37.093 26.912C38.6716 27.2763 39.6336 28.3598 40.0336 30.2232C42.1034 39.8711 40.3074 43.8922 38.8644 47.1237C38.567 47.7893 38.286 48.4186 38.0461 49.0695L37.8601 49.5728C37.3894 50.8451 36.9513 52.0281 36.6798 53.1514C34.3163 53.1445 32.0171 52.127 30.2689 50.2882V50.2886ZM30.6317 63.2998C29.9415 63.1261 29.3208 62.8243 28.9567 62.574C29.2609 62.4299 29.8022 62.2335 30.741 62.0385C35.2844 61.0961 35.9862 60.4308 37.5185 58.4702C37.8697 58.0205 38.2679 57.511 38.8194 56.8903L38.8201 56.8896C39.6415 55.9627 40.0172 56.1199 40.6985 56.4049C41.2507 56.6349 41.7886 57.3325 42.0067 58.1001C42.1099 58.4626 42.2257 59.1506 41.8465 59.6862C38.6457 64.2027 33.9814 64.1447 30.6317 63.2998ZM54.4094 85.598C48.8512 86.7982 46.8832 83.9402 45.5863 80.673C44.7493 78.5637 44.3378 69.0522 44.6297 58.5481C44.6335 58.4084 44.6137 58.2735 44.5756 58.1465C44.5414 57.8956 44.4895 57.6476 44.4202 57.4042C43.9862 55.8759 42.9285 54.5974 41.6595 54.0673C41.1553 53.8569 40.2301 53.4707 39.1182 53.7573C39.3553 52.7727 39.7665 51.6608 40.2124 50.4568L40.3994 49.9504C40.61 49.3795 40.8743 48.788 41.1536 48.1618C42.6638 44.781 44.7319 40.1502 42.4873 29.6887C41.6466 25.7702 38.8389 23.8566 34.5827 24.3012C32.0311 24.5673 29.6966 25.6047 28.5322 26.1997C28.2818 26.3274 28.0529 26.451 27.8389 26.5711C28.1639 22.6232 29.3917 15.2449 33.9845 10.5766C36.8763 7.63797 40.7275 6.18649 45.4197 6.26476C54.6652 6.41719 60.5941 11.1987 63.9401 15.1834C66.8234 18.6168 68.3847 22.0756 69.0077 23.9411C64.3219 23.4608 61.1351 24.3929 59.5197 26.7205C56.0051 31.7835 61.4423 41.6102 64.0555 46.3331C64.5348 47.1985 64.9484 47.9466 65.0785 48.2645C65.9295 50.3428 67.0312 51.7305 67.8355 52.7432C68.0821 53.0536 68.3213 53.3546 68.5032 53.6176C67.084 54.0299 64.5348 54.9826 64.7672 59.7445C64.5798 62.1339 63.2475 73.3208 62.5706 77.2733C61.6771 82.4949 59.7704 84.4397 54.4094 85.5984V85.598ZM77.6097 58.8423C76.1585 59.521 73.7299 60.0302 71.423 60.1397C68.8749 60.2598 67.5776 59.852 67.2724 59.601C67.1293 56.6335 68.2252 56.3235 69.3852 55.9953C69.5674 55.9438 69.7452 55.8934 69.9169 55.8329C70.0236 55.9205 70.1404 56.0073 70.2685 56.0925C72.3165 57.4547 75.9694 57.6016 81.1267 56.5288L81.1832 56.5175C80.4876 57.1729 79.2974 58.0524 77.6097 58.8423Z" fill="#000"/>
</svg>
