<?xml version="1.0" encoding="utf-8"?>
<!-- Generator: Adobe Illustrator 24.0.0, SVG Export Plug-In . SVG Version: 6.00 Build 0)  -->
<svg version="1.1" id="Layer_1" xmlns="http://www.w3.org/2000/svg" xmlns:xlink="http://www.w3.org/1999/xlink" x="0px" y="0px"
	 viewBox="0 0 501 115" enable-background="new 0 0 501 115" xml:space="preserve">
<g>
	<path fill="transparent" enable-background="new    " d="M494.9,51.8c-1.4-4.1-4.5-7.4-8.9-9.6c-7.9-3.9-15.8-7.8-23.7-11.6
		c-4.9-2.4-9.9-4.9-14.8-7.3c-3-1.5-6-2.2-8.8-2.2c-6.2,0-11.4,3.6-14.7,10.3c-0.7,1.4-1.4,2.9-2.1,4.3c-1.4-1.5-3.7-2-5.7-2.4
		c-0.2,0-0.5-0.1-0.7-0.1c-0.1,0-0.2,0-0.3-0.1c-1.7-0.3-3.4-0.6-5-0.9c-3.5-0.6-7.1-1.3-10.6-1.9c-2.6-0.4-5.1-0.9-7.7-1.4
		c-6.8-1.2-13.9-2.5-20.9-3.5c-0.6-0.1-1.2-0.1-1.7-0.2c0.1-0.3,0.2-0.6,0.2-1c0.2-2.1,0.1-4.1,0.1-5.9c-0.3-9.7-7.3-16.5-17.1-16.5
		c-7,0-14,0-21,0c-7.3,0-14.7,0-22,0c-5,0-9.2,1.6-12.3,4.7c-3.1,3.1-4.7,7.3-4.8,12.3c0,2.1,0,4.2,0,6.3c-0.1,0-0.1,0-0.2,0
		c-0.2,0-0.4,0-0.6,0.1c-0.4,0.1-0.9,0.1-1.3,0.2c-0.9,0.1-1.7,0.3-2.5,0.4c-4,0.9-8.4,2-13.7,3.2c-2.7,0.6-5.3,1.3-8,1.9
		c-7.1,1.7-14.5,3.4-21.7,5.3c-8.3,2.1-13.4,10.8-11.4,19.3c0.8,3.4,1.7,6.8,2.5,10.2c2.6,10.4,5.2,21.1,7.5,31.7
		c1.8,8.2,8.4,13.8,16.4,13.8c1.5,0,3.1-0.2,4.7-0.6c8.1-2.1,16.5-4.1,24.6-6c5.6-1.3,11.3-2.7,16.9-4.1c5.3-1.3,9.3-4.2,11.4-8.3
		c2.1-3.9,2.3-8.6,0.7-13.6c0.4,0,0.9,0,1.3,0l8.7,0c5.3,0,11,0,16.7,0c0,0,0.1,0,0.1,0c0.5,0,1,0,1.5-0.1c-0.2,1.1-0.4,2.3-0.6,3.4
		c-0.8,4.4,0.1,8.8,2.6,12.3c2.5,3.5,6.2,5.9,10.6,6.7l3.7,0.7c2.2,0.4,4.5,0.8,6.7,1.2c3,0.5,6,1.1,9.1,1.6
		c8.1,1.4,16.5,2.9,24.8,4.3c0.8,0.1,1.7,0.2,2.6,0.2c7,0,13.5-4.9,15.4-11.7c0.1-0.4,0.2-0.9,0.2-1.3c9.6,4.8,20,9.9,31.5,15.4
		c1.6,0.8,3.2,1.1,4.3,1.4c0.3,0.1,0.6,0.2,0.8,0.2c0.3,0.1,0.7,0.2,1.1,0.2c0.1,0,0.1,0,0.2,0c7.4-0.3,12.4-3.5,15.5-9.6
		c3.7-7.5,7.5-15.2,11.2-22.6c2.7-5.5,5.5-11,8.2-16.5C495.9,60.4,496.3,55.9,494.9,51.8z"/>
	<g>
		<path d="M458.7,109.8c-1-0.3-2.9-0.6-4.6-1.4c-13.3-6.5-26.7-13-39.9-19.6c-7.1-3.5-9.3-10.5-5.8-17.6
			c6.3-12.7,12.6-25.5,18.9-38.2c3.9-8,10.6-10.3,18.6-6.4c12.8,6.3,25.7,12.6,38.5,18.9c7.2,3.6,9.6,10.5,6.1,17.7
			c-6.4,13-12.9,26-19.4,39.1C468.7,107,464.9,109.5,458.7,109.8z M446,93.4c8.9,0,13.7-3.1,16.2-9.4c2.3-6,1-10.4-4.7-15.4
			c-2-1.7-4.2-3.2-6.2-4.9c-1.8-1.5-3.6-3.1-5.2-4.8c-1.5-1.7-1.5-3.7-0.4-5.7c1.4-2.5,4.5-3.4,8.1-2.3c5,1.4,8.5,4.7,11.2,8.9
			c1.3,2.1,3.3,2.6,5.4,1.5c2.3-1.2,2.8-3.7,1.3-6.5c-3.8-7.5-13.8-13.2-22.2-12.6c-5.9,0.4-10.1,3.4-12.3,8.9
			c-2.1,5.3-1.2,10.2,2.8,14.2c2.2,2.2,4.9,3.8,7.2,5.9c2.1,1.9,4.4,3.7,6,6c2.2,3.2,0.3,7-3.6,7.6c-1.8,0.3-3.7,0.2-5.4-0.3
			c-5.1-1.4-8.7-4.7-11.1-9.4c-1.2-2.3-3.2-3.1-5.4-2.3c-2.1,0.8-3.1,2.9-2.5,5.4c0.2,0.6,0.4,1.3,0.7,1.9
			C430.5,88.7,438.3,92.3,446,93.4z"/>
	</g>
	<path fill="#00D3B7" enable-background="new    " d="M54.5,92.2c-6.6,6.7-14,10.2-22.8,10C22,101.9,14.2,98,8.4,90.1
		c-8-10.9-7.9-26.7,0.3-37.7c4.1-5.4,9.6-8.9,16.1-10.8c6.3-1.9,12.6-2,18.8-0.1c7.7,2.4,14,6.7,18.1,13.8
		c3.2,5.4,4.6,11.2,4.5,17.6c-0.1,7.6,0,15.2,0,22.8c0,4.9-4.3,7.6-8.8,5.5c-2.2-1-2.7-3-3-5.2C54.4,94.9,54.5,93.8,54.5,92.2z
		 M13.9,71.3c-0.3,12,9.1,20.9,20.5,20.9c11.9,0,20.7-8.8,20.6-20.9c-0.1-12.2-8.6-20.8-20.6-21C22.9,50,13.5,59.5,13.9,71.3z"/>
	<path d="M168.6,72.6c-0.1,17.4-13.1,30.4-30.6,30.4c-17.5,0-30.6-13.1-30.5-30.6c0.1-17.5,13.2-30.6,30.7-30.5
		C155.7,41.9,168.7,55,168.6,72.6z M118.5,72.5c0,12.5,9.1,21.1,21.4,20.4c9.6-0.6,17-8.6,17.7-19.2c0.9-14.1-10.6-24.4-24-21.5
		C124.6,54.2,118.5,62.4,118.5,72.5z"/>
	<path d="M225.1,64.9c0,5.1,0.1,10.3,0,15.4c-0.1,4.4-1.2,8.5-3.6,12.3c-3.2,5-7.8,7.9-13.6,9.2c-5.8,1.3-11.6,1.3-17.3-0.2
		c-9.2-2.4-15.6-10-15.9-19.8c-0.4-11.2-0.2-22.3-0.2-33.5c0-3.2,2.4-5.2,5.6-5.1c3.2,0.1,5.3,2.3,5.4,5.7c0,9.6,0,19.2,0,28.8
		c0,1.8,0.1,3.7,0.5,5.4c0.9,4.7,3.6,7.8,8.3,9.1c3.7,1,7.4,1,11.1,0c5.5-1.6,8.7-6,8.8-12.3c0.1-10.3,0-20.6,0.1-30.9
		c0-4.4,3.5-6.8,7.6-5.4c2.1,0.8,3.3,2.6,3.4,5C225.2,54.1,225.2,59.5,225.1,64.9C225.1,64.9,225.1,64.9,225.1,64.9z"/>
	<path d="M80.2,53.6c-2.2,0-4.2,0-6.2,0c-3.5,0-5.7-1.9-5.7-4.9c0-3,2.2-4.8,5.8-4.8c1.9,0,3.9,0,6.1,0c0-3.3,0-6.3,0-9.3
		c0-2.4,1.2-4.1,3.5-5c2.3-0.9,4.4-0.5,5.9,1.3c0.8,1,1.4,2.5,1.5,3.8c0.2,3,0.1,5.9,0.1,9.2c3.3,0,6.4,0,9.5,0
		c2.6,0,4.4,1.3,5.1,3.3c1,3.2-1.1,6.3-4.5,6.4c-3.2,0.1-6.5,0-9.9,0c0,0.9-0.1,1.7-0.1,2.4c0,9.9,0,19.8,0,29.7
		c0,0.8,0,1.6,0.1,2.4c0.4,3.2,2.7,4.9,5.9,4.4c0.7-0.1,1.4-0.3,2.2-0.5c1.9-0.5,3.5,0,4.5,1.8c1,1.7,0.8,3.9-0.7,5.2
		c-1,0.9-2.2,1.7-3.4,2.1c-4.2,1.5-8.5,1.1-12.6-0.4c-4-1.5-6-4.9-6.6-9.1c-0.2-1.6-0.3-3.2-0.3-4.9c0-10.1,0-20.2,0-30.3
		C80.2,55.6,80.2,54.8,80.2,53.6z"/>
	<path fill="#00D3B7" enable-background="new    " d="M295.9,40.4c0-7.2,0-14.4,0-21.5c0-8.1,5.3-13.3,13.4-13.3c14.3,0,28.7,0,43,0
		c7.9,0,13.2,5.2,13.4,13c0.1,1.8,0.1,3.7,0,5.5c0,0.6-0.7,1.4-1.2,1.6c-6.4,2.1-10.3,6.3-11.5,12.9c-2.1,11.6-4.2,23.2-6.2,34.8
		c-0.3,1.5-0.8,2-2.3,1.9c-11.9-0.1-23.8,0-35.7,0c-7.5,0-12.8-5.3-12.9-12.8C295.9,55,295.9,47.7,295.9,40.4z M332.4,45.7
		c0-4.7,0-9.5,0-14.2c0-1.1-0.3-2.3-0.8-3.3c-0.9-1.7-3.1-2.3-5-1.7c-1.9,0.6-3.1,2.2-3.1,4.7c0,9.5,0,19.1,0,28.6
		c0,3.3,1.6,5.1,4.5,5.1c2.9,0,4.4-1.7,4.4-5.1C332.5,55.2,332.4,50.4,332.4,45.7z M323.4,17.5c0,3.6,0.9,4.5,4.6,4.5
		c3.8,0,4.7-0.9,4.7-4.4c0-3.5-0.8-4.3-4.5-4.3C324.2,13.2,323.4,14,323.4,17.5z M292,28.8c0,1.1,0,1.8,0,2.6c0,10.2,0,20.5,0,30.7
		c0,10.1,6.9,16.9,17.1,16.9c1.6,0,3.2,0,4.8,0c3.2,8.8-0.4,15.9-9.2,18c-13.8,3.4-27.7,6.5-41.5,10.1c-8.3,2.1-14.9-2.9-16.5-10.4
		c-3.1-14.1-6.7-28-10.1-42c-1.6-6.5,2.2-13.2,8.7-14.9c9.9-2.5,19.8-4.8,29.7-7.2c4.5-1.1,9.1-2.2,13.7-3.2
		C289.6,29.2,290.6,29.1,292,28.8z M272.9,73c0.7,0.5,1.2,0.8,1.6,1.2c5.9,4.7,11.7,9.4,17.6,14.1c2.6,2.1,5.5,1.9,7.3-0.4
		c1.7-2.2,1.3-4.8-1.3-6.9c-2.7-2.2-5.4-4.3-8.1-6.5c-4-3.2-8-6.4-12.1-9.7c2.8-4.5,5.6-8.8,8.3-13.2c1-1.6,2.1-3.2,3-4.8
		c1.3-2.3,0.8-4.7-1.3-6c-1.9-1.2-4.1-0.7-5.8,1.3c-0.4,0.5-0.8,1.1-1.1,1.7c-3.1,5.1-6.3,10.3-9.4,15.4c-2.1,3.4-4.2,6.9-6.5,10.6
		c-0.2-0.8-0.3-1.2-0.4-1.5c-1.4-5.5-2.8-11-4.2-16.5c-0.7-2.9-2.7-4.2-5.4-3.7c-3.3,0.6-4.5,3.1-3.5,7.1c3.2,12.7,6.4,25.3,9.6,38
		c0.9,3.4,2.8,4.7,5.9,4c2.8-0.6,4-2.8,3.2-6.2c-0.7-2.8-1.5-5.6-2.1-8.5c-0.2-0.7-0.3-1.7,0-2.3C269.8,77.7,271.3,75.5,272.9,73z
		 M418.3,42.5c2.1-4.2,1.8-4.7-2.8-5.6c-0.3-0.1-0.7-0.1-1-0.2c-5.2-0.9-10.4-1.9-15.6-2.8c-9.5-1.6-19-3.4-28.5-4.9
		c-6.7-1-12.5,3.6-13.7,10.2c-2.6,14.5-5.1,29-7.7,43.5c-1.3,7,3.1,13.5,10.2,14.8c3.5,0.6,6.9,1.3,10.4,1.9c11.3,2,22.6,4,33.9,5.9
		c6.1,1,12.2-2.9,13.8-8.8c0.4-1.4,0.1-2.1-1.2-2.7c-4.8-2.1-9.4-4.6-11.7-9.8c-6.3,7.6-12.8,10.2-21.4,8.5c-5.3-1-10.6-2.1-16-3.2
		c-3.8-0.8-5.1-2.5-4.3-6.3c2.5-12.9,5.1-25.7,7.7-38.6c0.9-4.4,2.5-5.4,6.9-4.5c5.4,1,10.8,2.1,16.2,3.2
		c7.1,1.5,12.1,5.6,14.7,12.4c0.5,1.4,0.9,2.8,1.5,4.6C412.7,54,415.5,48.2,418.3,42.5z M403.6,62.9c-0.5-7.2-4.4-12.2-10.8-14
		c-3.1-0.9-6.2-1.4-9.3-2c-1.3-0.2-2.7-0.5-4.1-0.8c-0.2,0-0.5-0.1-0.8-0.1c-0.7,0-1.4,0.2-2,0.6c-0.8,0.5-1.4,1.3-1.6,2.2L368.6,80
		c-0.2,0.9,0,1.9,0.6,2.6s1.4,1.3,2.3,1.5c1.3,0.2,2.6,0.5,3.8,0.7c2.8,0.5,5.5,1,8.2,1.5c1,0.2,2.1,0.3,3.1,0.3
		c4.7,0,8.8-2.1,11.8-6C402.3,75.5,404.1,69.5,403.6,62.9z"/>
	<path fill="#DB1E5E" enable-background="new    " d="M153.8,73.8c-0.7,8.4-6.6,14.3-15.3,14.9c-2.1,0.2-3.7-1.2-3.8-3.1
		c-0.1-1.7,1.3-3.3,3.2-3.5c6.3-0.9,8.4-3,9.2-9.2c0.3-2.1,1.6-3.3,3.5-3.2C152.6,69.8,153.8,71.4,153.8,73.8z"/>
</g>
</svg>
