<?xml version="1.0" standalone="no"?>
<!DOCTYPE svg PUBLIC "-//W3C//DTD SVG 20010904//EN"
 "http://www.w3.org/TR/2001/REC-SVG-20010904/DTD/svg10.dtd">
<svg version="1.0" xmlns="http://www.w3.org/2000/svg"
 width="480.000000pt" height="95.000000pt" viewBox="0 0 480.000000 95.000000"
 preserveAspectRatio="xMidYMid meet">

<g transform="translate(0.000000,95.000000) scale(0.100000,-0.100000)"
fill="#000000" stroke="none">
<path d="M2568 810 c-65 -6 -106 -37 -135 -102 -9 -21 -21 -38 -26 -38 -4 0
-6 -4 -3 -8 3 -5 -11 -33 -30 -62 -19 -29 -33 -55 -30 -57 2 -2 33 -9 70 -15
59 -10 73 -9 137 11 74 24 130 64 155 112 20 40 17 56 -6 28 -48 -57 -68 -73
-124 -100 -33 -16 -61 -27 -64 -24 -3 2 -13 0 -23 -6 -10 -5 -30 -7 -45 -3
-21 6 -23 9 -12 20 7 7 22 15 33 17 44 7 112 46 143 82 52 59 90 164 51 139
-5 -3 -15 -2 -22 3 -7 5 -38 6 -69 3z"/>
<path d="M3643 802 c-90 -32 -151 -91 -195 -188 -34 -74 -31 -190 5 -265 32
-66 99 -132 165 -162 68 -32 198 -30 265 3 27 12 51 29 54 37 6 15 -61 123
-76 123 -5 0 -26 -7 -47 -16 -49 -21 -122 -14 -161 14 -87 62 -85 220 4 286
40 29 114 33 162 8 l40 -21 41 57 c22 31 39 63 38 71 -2 8 -25 25 -51 39 -67
33 -174 39 -244 14z"/>
<path d="M4253 806 c-89 -29 -167 -99 -206 -185 -31 -68 -30 -198 1 -266 30
-66 102 -138 166 -167 76 -34 191 -32 267 3 69 33 127 89 160 155 20 41 24 63
24 144 0 83 -4 101 -27 145 -57 109 -158 175 -277 181 -38 2 -83 -2 -108 -10z
m164 -163 c79 -37 114 -151 71 -232 -30 -58 -65 -83 -126 -89 -63 -6 -115 18
-149 69 -55 83 -17 222 72 259 33 14 95 11 132 -7z"/>
<path d="M4310 532 c-42 -34 -15 -112 39 -112 33 0 61 30 61 65 0 57 -56 83
-100 47z"/>
<path d="M1958 684 l-97 -126 -3 118 -3 119 -80 0 -80 0 0 -310 0 -310 80 0
80 0 5 97 c4 87 8 100 30 123 l25 25 54 -88 c30 -48 68 -104 84 -125 l29 -37
90 0 c68 0 89 3 85 13 -2 6 -52 85 -111 175 -58 89 -106 165 -106 168 0 3 45
65 100 138 55 73 100 135 100 139 0 4 -42 7 -93 7 l-93 0 -96 -126z"/>
<path d="M267 793 c-4 -3 -7 -145 -7 -315 l0 -308 233 2 232 3 0 70 0 70 -147
3 c-140 2 -148 4 -148 22 0 19 7 20 103 20 56 0 108 4 115 9 9 5 12 25 10 62
l-3 54 -112 3 -113 3 0 79 0 79 143 3 142 3 3 73 3 72 -224 0 c-123 0 -227 -3
-230 -7z"/>
<path d="M810 788 c0 -7 20 -66 45 -131 25 -66 45 -123 45 -127 0 -5 -17 -10
-37 -12 l-38 -3 0 -170 0 -170 80 0 80 0 3 108 3 107 82 0 c102 0 157 24 202
88 26 38 30 53 30 110 0 83 -25 135 -84 177 l-43 30 -184 3 c-147 3 -184 1
-184 -10z m312 -145 c39 -35 13 -109 -41 -115 -19 -3 -26 5 -41 42 -37 94 -37
90 16 90 30 0 54 -6 66 -17z"/>
<path d="M1390 485 l0 -315 80 0 80 0 0 315 0 315 -80 0 -80 0 0 -315z"/>
<path d="M2885 787 c-3 -7 -4 -147 -3 -312 l3 -300 233 -3 233 -2 -3 72 -3 73
-147 3 c-139 2 -148 4 -148 22 0 18 9 20 113 22 l112 3 0 60 0 60 -112 3 -113
3 0 79 0 79 143 3 142 3 3 73 3 72 -226 0 c-172 0 -227 -3 -230 -13z"/>
<path d="M2727 743 c-4 -3 -7 -11 -7 -17 0 -6 5 -5 12 2 6 6 9 14 7 17 -3 3
-9 2 -12 -2z"/>
<path d="M3710 530 c-26 -26 -25 -64 2 -90 28 -25 62 -26 88 0 40 40 11 110
-45 110 -14 0 -34 -9 -45 -20z"/>
</g>
</svg>
