<svg width="141" height="48" viewBox="0 0 141 48" fill="none" xmlns="http://www.w3.org/2000/svg">
<path d="M70.539 14.3941H58.7863C57.323 14.3941 56.1761 15.5411 56.1761 17.0044V33.554C56.1761 35.0174 57.323 36.1643 58.7863 36.1643C60.2497 36.1643 61.3958 35.0174 61.3958 33.554V27.859H69.1902C70.5357 27.859 71.5904 26.8051 71.5904 25.4588C71.5904 24.1125 70.5365 23.0587 69.1902 23.0587H61.3958V19.1936H70.5398C71.8631 19.1936 72.94 18.1167 72.94 16.7934C72.94 15.4702 71.8631 14.3933 70.5398 14.3933L70.539 14.3941Z" fill="#009FFF"/>
<path d="M79.817 14.2195C78.3537 14.2195 77.2067 15.3656 77.2067 16.8289V33.3802C77.2067 34.8435 78.3537 35.9905 79.817 35.9905H90.6707C92.0162 35.9905 93.0709 34.9366 93.0709 33.5903C93.0709 32.244 92.0171 31.1902 90.6707 31.1902H82.4264V16.8289C82.4264 15.3656 81.2803 14.2195 79.817 14.2195Z" fill="#009FFF"/>
<path d="M105.857 14.0364C99.4167 14.0364 94.3725 18.9364 94.3725 25.1917V25.2519C94.3725 31.5773 99.284 36.3462 105.796 36.3462C112.309 36.3462 117.282 31.4462 117.282 25.1917V25.1316C117.282 18.8062 112.371 14.0372 105.857 14.0372V14.0364ZM111.852 25.2519C111.852 28.8063 109.274 31.4874 105.857 31.4874C102.439 31.4874 99.8015 28.7808 99.8015 25.1917V25.1316C99.8015 21.5771 102.379 18.896 105.796 18.896C109.214 18.896 111.852 21.6026 111.852 25.1917V25.2519Z" fill="#009FFF"/>
<path d="M128.184 36.3685C130.596 36.3685 132.742 35.5981 134.39 34.1413L134.758 33.8167L134.876 34.293C135.142 35.3723 136.217 36.127 137.49 36.127C138.992 36.127 140.169 34.9686 140.169 33.4896V23.0165C140.169 20.0594 139.369 17.782 137.792 16.2462L137.787 16.2404C136.215 14.6255 133.702 13.7727 130.522 13.7727C127.987 13.7727 125.906 14.1525 123.562 15.0432C122.669 15.3901 122.044 16.3006 122.044 17.2563C122.044 18.5326 123.1 19.5716 124.398 19.5716C124.658 19.5716 124.926 19.5304 125.24 19.4406L125.282 19.4266C126.688 18.8737 128.192 18.6043 129.878 18.6043C131.436 18.6043 132.649 18.9429 133.482 19.612C134.329 20.2934 134.788 21.3126 134.846 22.6408L134.863 23.0503L134.469 22.9399C133.444 22.6531 131.807 22.2725 129.433 22.2725C126.619 22.2725 124.3 22.9333 122.726 24.1824C121.172 25.4158 120.35 27.2277 120.35 29.421V29.5009C120.35 33.5448 123.571 36.3685 128.184 36.3685H128.184ZM125.706 29.22C125.706 27.9585 126.357 27.0093 127.588 26.4762C128.544 26.0626 129.645 25.9753 130.4 25.9753C132.332 25.9753 133.823 26.3469 134.732 26.6583L134.933 26.7267V27.9692C134.933 30.4328 132.672 32.2207 129.555 32.2207C128.583 32.2207 127.679 31.9975 127.01 31.5921C126.157 31.0746 125.706 30.282 125.706 29.2999V29.22Z" fill="#009FFF"/>
<path d="M46.2445 1.77857C44.4582 -0.00773262 41.899 -0.489738 39.5673 0.520414C36.4058 1.8898 34.7274 4.95569 33.5022 7.77274L28.7399 19.2832L40.2256 14.5315L40.2503 14.5208C43.0682 13.2956 46.1333 11.6172 47.5035 8.45579C48.5136 6.12321 48.0316 3.56487 46.2453 1.77857H46.2445ZM44.7812 7.27673C44.2431 8.51841 43.1448 10.0254 39.0795 11.7952L34.215 13.8081L36.227 8.94356C37.2207 6.6596 38.5349 4.19931 40.7455 3.24189C41.9542 2.71786 43.2256 2.95516 44.1467 3.87632C45.0671 4.79667 45.3044 6.06883 44.7812 7.27755V7.27673ZM39.6101 20.4029C36.2789 19.0854 32.7846 20.108 29.8044 21.2821L26.7023 22.5682C26.343 22.0854 25.9146 21.6561 25.4317 21.2977L26.708 18.2203L26.7179 18.1956C27.892 15.2162 28.9137 11.7211 27.5971 8.38987C26.6298 5.94277 24.4035 4.4226 21.7883 4.42342C19.1731 4.42342 16.9468 5.94359 15.9795 8.38987C15.6639 9.18827 15.4835 9.99656 15.4069 10.8048C14.7807 10.2882 14.082 9.84413 13.2943 9.50219C10.8793 8.45579 8.23116 8.9551 6.38142 10.8048C4.53167 12.6546 4.03319 15.3027 5.07877 17.7177C5.41988 18.5054 5.86398 19.2041 6.38142 19.8303C5.57313 19.9069 4.76567 20.0874 3.96645 20.4029C1.52017 21.3711 0 23.5965 0 26.2117C0 28.8269 1.52017 31.0532 3.96645 32.0205C4.76485 32.3361 5.57313 32.5173 6.3806 32.594C5.86398 33.2193 5.41988 33.918 5.07877 34.7057C4.03236 37.1199 4.53167 39.7688 6.38142 41.6186C7.59096 42.8281 9.14244 43.4601 10.7458 43.4601C11.5945 43.4601 12.458 43.2829 13.2935 42.9212C14.0811 42.5801 14.7798 42.136 15.406 41.6186C15.4827 42.4269 15.6631 43.2343 15.9787 44.0336C16.946 46.4807 19.1723 48.0008 21.7875 48C24.4026 48 26.6289 46.4798 27.5962 44.0336C27.9118 43.2352 28.0923 42.4269 28.1689 41.6186C28.7951 42.1352 29.4938 42.5793 30.2815 42.9212C31.1169 43.2829 31.9804 43.4601 32.8291 43.4601C34.4333 43.4601 35.9848 42.8281 37.1935 41.6186C39.0424 39.7688 39.5417 37.1207 38.4961 34.7057C38.155 33.918 37.7109 33.2193 37.1943 32.594C38.0026 32.5173 38.8101 32.3361 39.6085 32.0205C42.0556 31.0532 43.5757 28.8269 43.5757 26.2117C43.5757 23.5965 42.0556 21.3702 39.6085 20.4029H39.6101ZM5.05735 29.2628C3.74811 28.7445 2.96619 27.6042 2.96619 26.2125C2.96619 24.8209 3.74811 23.6797 5.05735 23.1623C5.63246 22.9349 6.32292 22.7487 7.27292 22.7487C8.48906 22.7487 10.132 23.056 12.5008 23.9722C12.5453 23.992 12.5898 24.011 12.6335 24.0307L15.734 25.3136C15.6903 25.6078 15.6672 25.9077 15.6672 26.2134C15.6672 26.519 15.6903 26.819 15.734 27.1131L12.6582 28.3861L12.6335 28.3968C12.5824 28.419 12.5313 28.4413 12.4802 28.4644C10.0875 29.3921 7.36273 30.1773 5.05652 29.2652L5.05735 29.2628ZM16.8685 34.2039L16.8586 34.2287C16.8389 34.2797 16.8183 34.3308 16.7985 34.3827C15.7628 36.7318 14.3909 39.2143 12.1152 40.2006C10.8233 40.76 9.46378 40.5071 8.47917 39.5225C7.49456 38.5379 7.24079 37.1784 7.80107 35.8864C8.36217 34.592 9.49839 33.0249 13.637 31.1949C13.6824 31.1776 13.7277 31.1603 13.7722 31.1422L16.8743 29.856C17.2335 30.3388 17.662 30.7681 18.1448 31.1265L16.8685 34.2039ZM16.8743 22.5682L13.7969 21.292L13.7722 21.2821C13.7211 21.2615 13.6692 21.2417 13.6173 21.2219C11.269 20.1862 8.7865 18.8144 7.80107 16.5386C7.24161 15.2467 7.49456 13.8872 8.47917 12.9026C9.46378 11.918 10.8233 11.665 12.1152 12.2245C13.4096 12.7848 14.9759 13.9218 16.8051 18.0572C16.8232 18.1033 16.8413 18.1503 16.8595 18.1956L18.1456 21.2977C17.6628 21.657 17.2335 22.0854 16.8751 22.5682H16.8743ZM24.8393 42.9427C24.3211 44.2519 23.1816 45.0338 21.7891 45.0338C20.3966 45.0338 19.2563 44.2519 18.7389 42.9427C18.2206 41.6309 17.9158 39.7202 19.5472 35.5025C19.5669 35.4572 19.5875 35.411 19.6073 35.3657L20.8902 32.2652C21.1843 32.3089 21.4842 32.3319 21.7899 32.3319C22.0956 32.3319 22.3955 32.3089 22.6897 32.2652L23.9627 35.341L23.9734 35.3657C23.9956 35.4168 24.0179 35.467 24.0401 35.5181C24.9687 37.9108 25.7531 40.6364 24.841 42.9427H24.8393ZM18.6342 26.2117C18.6342 24.4724 20.0489 23.0577 21.7883 23.0577C23.5276 23.0577 24.9423 24.4724 24.9423 26.2117C24.9423 27.9511 23.5276 29.3658 21.7883 29.3658C20.0489 29.3658 18.6342 27.9511 18.6342 26.2117ZM23.9635 17.0965L22.6938 20.159C22.3988 20.1154 22.0964 20.0915 21.7891 20.0915C21.4818 20.0915 21.1835 20.1145 20.8894 20.1582L19.6164 17.0824L19.6065 17.0577C19.5842 17.0066 19.562 16.9564 19.5397 16.9053C18.612 14.5126 17.8268 11.787 18.7389 9.48077C19.2571 8.17153 20.3966 7.38961 21.7891 7.38961C23.1816 7.38961 24.3219 8.17153 24.8393 9.48077C25.365 10.8106 25.6723 12.7543 23.9635 17.0965ZM35.0982 39.5217C34.1136 40.5063 32.7549 40.76 31.4622 40.1998C30.1686 39.6395 28.6023 38.5033 26.7731 34.3687C26.755 34.3218 26.7369 34.2748 26.7187 34.2287L25.4326 31.1265C25.9154 30.7673 26.3447 30.3388 26.7031 29.856L29.7805 31.1323L29.8052 31.1422C29.8547 31.1619 29.9057 31.1809 29.956 31.2007C32.3059 32.2364 34.7901 33.6091 35.7771 35.8856C36.3366 37.1775 36.0836 38.537 35.099 39.5217H35.0982ZM38.52 29.2628C37.2083 29.781 35.2976 30.0859 31.079 28.4545C31.0337 28.4347 30.9884 28.4149 30.9431 28.3952L27.8426 27.1123C27.8863 26.8181 27.9093 26.5182 27.9093 26.2125C27.9093 25.9069 27.8863 25.6028 27.8418 25.3078L30.9044 24.0373C33.3424 23.0774 36.152 22.2255 38.5192 23.1615C39.8285 23.6797 40.6104 24.8201 40.6104 26.2117C40.6104 27.6033 39.8285 28.7445 38.5192 29.2619L38.52 29.2628Z" fill="#009FFF"/>
</svg>