<svg width="72" height="66" viewBox="0 0 72 66" fill="none" xmlns="http://www.w3.org/2000/svg">
<g filter="url(#filter0_d)">
<path d="M68 29.0738C68 24.8153 62.6906 20.7795 54.5504 18.2768C56.4289 9.94317 55.594 3.31296 51.9152 1.19024C51.0673 0.692319 50.0758 0.456462 48.9931 0.456462V3.37847C49.5931 3.37847 50.0758 3.4964 50.4802 3.71915C52.2544 4.7412 53.0241 8.63285 52.424 13.6383C52.2805 14.87 52.0457 16.1672 51.7587 17.4906C49.2018 16.8616 46.4101 16.3768 43.4749 16.0624C41.7138 13.6383 39.8875 11.4369 38.0481 9.51076C42.3009 5.5405 46.2927 3.36537 49.0061 3.36537V0.443359C45.4187 0.443359 40.7224 3.01158 35.9739 7.46667C31.2254 3.03779 26.5291 0.495772 22.9417 0.495772V3.41778C25.6421 3.41778 29.647 5.57981 33.8997 9.52386C32.0734 11.45 30.247 13.6383 28.512 16.0624C25.5638 16.3768 22.7721 16.8616 20.2152 17.5037C19.9152 16.1934 19.6934 14.9224 19.5369 13.7038C18.9238 8.69836 19.6804 4.80672 21.4415 3.77157C21.8329 3.53571 22.3416 3.43089 22.9417 3.43089V0.508875C21.8459 0.508875 20.8545 0.744732 19.9935 1.24265C16.3278 3.36537 15.5059 9.98247 17.3975 18.2899C9.28333 20.8057 4 24.8284 4 29.0738C4 33.3323 9.30942 37.3681 17.4497 39.8708C15.5711 48.2045 16.406 54.8347 20.0848 56.9574C20.9327 57.4553 21.9242 57.6912 23.02 57.6912C26.6074 57.6912 31.3037 55.1229 36.0522 50.6679C40.8007 55.0967 45.4969 57.6387 49.0844 57.6387C50.1802 57.6387 51.1716 57.4029 52.0326 56.905C55.6983 54.7822 56.5202 48.1651 54.6286 39.8577C62.7167 37.355 68 33.3192 68 29.0738ZM51.0151 20.334C50.5324 22.0243 49.9323 23.767 49.254 25.5097C48.7191 24.4615 48.1582 23.4132 47.545 22.365C46.945 21.3167 46.3058 20.2947 45.6665 19.2988C47.519 19.574 49.3062 19.9147 51.0151 20.334ZM45.0404 34.2889C44.0228 36.0578 42.9792 37.735 41.8965 39.2943C39.9527 39.4646 37.9829 39.5564 36 39.5564C34.0302 39.5564 32.0603 39.4646 30.1296 39.3074C29.0469 37.7481 27.9902 36.084 26.9727 34.3282C25.9812 32.6117 25.0811 30.8689 24.2593 29.1131C25.0681 27.3573 25.9813 25.6015 26.9596 23.8849C27.9772 22.116 29.0208 20.4388 30.1035 18.8795C32.0473 18.7092 34.0171 18.6175 36 18.6175C37.9698 18.6175 39.9397 18.7092 41.8704 18.8664C42.9531 20.4257 44.0098 22.0898 45.0273 23.8456C46.0188 25.5622 46.9189 27.3049 47.7407 29.0607C46.9189 30.8165 46.0188 32.5724 45.0404 34.2889ZM49.254 32.5855C49.9584 34.3413 50.5585 36.0971 51.0542 37.8005C49.3453 38.2198 47.545 38.5736 45.6796 38.8488C46.3188 37.8398 46.958 36.8047 47.5581 35.7433C48.1582 34.6951 48.7191 33.6337 49.254 32.5855ZM36.0261 46.5666C34.8129 45.3087 33.5997 43.9066 32.3995 42.3735C33.5736 42.426 34.7737 42.4653 35.987 42.4653C37.2132 42.4653 38.4264 42.4391 39.6135 42.3735C38.4395 43.9066 37.2263 45.3087 36.0261 46.5666ZM26.3204 38.8488C24.468 38.5736 22.6808 38.2329 20.9719 37.8136C21.4545 36.1233 22.0546 34.3806 22.733 32.6379C23.2678 33.6861 23.8288 34.7344 24.4419 35.7826C25.055 36.8309 25.6812 37.8529 26.3204 38.8488ZM35.9609 11.5811C37.1741 12.839 38.3873 14.241 39.5874 15.7741C38.4134 15.7217 37.2132 15.6824 36 15.6824C34.7737 15.6824 33.5605 15.7086 32.3734 15.7741C33.5475 14.241 34.7607 12.839 35.9609 11.5811ZM26.3074 19.2988C25.6682 20.3078 25.0289 21.3429 24.4289 22.4043C23.8288 23.4525 23.2678 24.5008 22.733 25.5491C22.0285 23.7932 21.4285 22.0374 20.9327 20.334C22.6417 19.9278 24.4419 19.574 26.3074 19.2988ZM14.5014 35.704C9.88341 33.7254 6.89605 31.131 6.89605 29.0738C6.89605 27.0166 9.88341 24.4091 14.5014 22.4436C15.6233 21.9588 16.8496 21.5264 18.115 21.1202C18.8585 23.6884 19.8369 26.3615 21.0501 29.1C19.85 31.8255 18.8846 34.4854 18.1541 37.0405C16.8626 36.6343 15.6364 36.1888 14.5014 35.704ZM21.5198 54.4285C19.7456 53.4064 18.976 49.5148 19.576 44.5094C19.7195 43.2777 19.9543 41.9804 20.2413 40.657C22.7982 41.286 25.5899 41.7708 28.5251 42.0853C30.2862 44.5094 32.1125 46.7107 33.9519 48.6369C29.6991 52.6071 25.7073 54.7823 22.9939 54.7823C22.4068 54.7691 21.9111 54.6512 21.5198 54.4285ZM52.4631 44.4438C53.0762 49.4493 52.3196 53.3409 50.5585 54.3761C50.1671 54.6119 49.6584 54.7167 49.0583 54.7167C46.3579 54.7167 42.353 52.5547 38.1003 48.6107C39.9266 46.6845 41.753 44.4963 43.488 42.0722C46.4362 41.7577 49.2279 41.2729 51.7848 40.6308C52.0848 41.9542 52.3196 43.2252 52.4631 44.4438ZM57.4855 35.704C56.3636 36.1888 55.1374 36.6212 53.872 37.0274C53.1284 34.4592 52.15 31.7862 50.9368 29.0476C52.137 26.3221 53.1023 23.6622 53.8329 21.1071C55.1243 21.5133 56.3506 21.9588 57.4986 22.4436C62.1166 24.4222 65.104 27.0166 65.104 29.0738C65.0909 31.131 62.1035 33.7385 57.4855 35.704Z" fill="#eeeeee"/>
<path d="M35.9871 35.0615C39.2796 35.0615 41.9488 32.3806 41.9488 29.0735C41.9488 25.7664 39.2796 23.0854 35.9871 23.0854C32.6945 23.0854 30.0254 25.7664 30.0254 29.0735C30.0254 32.3806 32.6945 35.0615 35.9871 35.0615Z" fill="#eeeeee"/>
</g>
<defs>
<filter id="filter0_d" x="0" y="0.443359" width="72" height="65.2478" filterUnits="userSpaceOnUse" color-interpolation-filters="sRGB">
<feFlood flood-opacity="0" result="BackgroundImageFix"/>
<feColorMatrix in="SourceAlpha" type="matrix" values="0 0 0 0 0 0 0 0 0 0 0 0 0 0 0 0 0 0 127 0"/>
<feOffset dy="4"/>
<feGaussianBlur stdDeviation="2"/>
<feColorMatrix type="matrix" values="0 0 0 0 0 0 0 0 0 0 0 0 0 0 0 0 0 0 0.25 0"/>
<feBlend mode="normal" in2="BackgroundImageFix" result="effect1_dropShadow"/>
<feBlend mode="normal" in="SourceGraphic" in2="effect1_dropShadow" result="shape"/>
</filter>
</defs>
</svg>
