<svg width="80" height="80" viewBox="0 0 80 80" fill="none" xmlns="http://www.w3.org/2000/svg">
<g filter="url(#filter0_d_16_405)">
<circle cx="36" cy="36" r="32" fill="white"/>
<path d="M32.1094 42.6562C32.1094 42.5625 32.0156 42.4688 31.875 42.4688C31.7344 42.4688 31.6406 42.5625 31.6406 42.6562C31.6406 42.75 31.7344 42.8438 31.875 42.7969C32.0156 42.7969 32.1094 42.75 32.1094 42.6562ZM30.6562 42.4219C30.6562 42.5156 30.75 42.6562 30.8906 42.6562C30.9844 42.7031 31.125 42.6562 31.1719 42.5625C31.1719 42.4688 31.125 42.375 30.9844 42.3281C30.8438 42.2812 30.7031 42.3281 30.6562 42.4219ZM32.7656 42.375C32.625 42.375 32.5312 42.4688 32.5312 42.6094C32.5312 42.7031 32.6719 42.75 32.8125 42.7031C32.9531 42.6562 33.0469 42.6094 33 42.5156C33 42.4219 32.8594 42.3281 32.7656 42.375ZM35.8125 24.375C29.3438 24.375 24.375 29.3438 24.375 35.8125C24.375 41.0156 27.6094 45.4688 32.2969 47.0625C32.9062 47.1562 33.0938 46.7812 33.0938 46.5C33.0938 46.1719 33.0938 44.5781 33.0938 43.5938C33.0938 43.5938 29.8125 44.2969 29.1094 42.1875C29.1094 42.1875 28.5938 40.8281 27.8438 40.5C27.8438 40.5 26.7656 39.75 27.8906 39.75C27.8906 39.75 29.0625 39.8438 29.7188 40.9688C30.75 42.7969 32.4375 42.2812 33.1406 41.9531C33.2344 41.2031 33.5156 40.6875 33.8906 40.3594C31.2656 40.0781 28.5938 39.7031 28.5938 35.2031C28.5938 33.8906 28.9688 33.2812 29.7188 32.4375C29.5781 32.1094 29.2031 30.8906 29.8594 29.25C30.7969 28.9688 33.0938 30.5156 33.0938 30.5156C34.0312 30.2344 35.0156 30.1406 36 30.1406C37.0312 30.1406 38.0156 30.2344 38.9531 30.5156C38.9531 30.5156 41.2031 28.9219 42.1875 29.25C42.8438 30.8906 42.4219 32.1094 42.3281 32.4375C43.0781 33.2812 43.5469 33.8906 43.5469 35.2031C43.5469 39.7031 40.7812 40.0781 38.1562 40.3594C38.5781 40.7344 38.9531 41.4375 38.9531 42.5625C38.9531 44.1094 38.9062 46.0781 38.9062 46.4531C38.9062 46.7812 39.1406 47.1562 39.75 47.0156C44.4375 45.4688 47.625 41.0156 47.625 35.8125C47.625 29.3438 42.3281 24.375 35.8125 24.375ZM28.9219 40.5469C28.8281 40.5938 28.875 40.7344 28.9219 40.8281C29.0156 40.875 29.1094 40.9219 29.2031 40.875C29.25 40.8281 29.25 40.6875 29.1562 40.5938C29.0625 40.5469 28.9688 40.5 28.9219 40.5469ZM28.4062 40.1719C28.3594 40.2656 28.4062 40.3125 28.5 40.3594C28.5938 40.4062 28.6875 40.4062 28.7344 40.3125C28.7344 40.2656 28.6875 40.2188 28.5938 40.1719C28.5 40.125 28.4531 40.125 28.4062 40.1719ZM29.9062 41.8594C29.8594 41.9062 29.8594 42.0469 30 42.1406C30.0938 42.2344 30.2344 42.2812 30.2812 42.1875C30.3281 42.1406 30.3281 42 30.2344 41.9062C30.1406 41.8125 30 41.7656 29.9062 41.8594ZM29.3906 41.1562C29.2969 41.2031 29.2969 41.3438 29.3906 41.4375C29.4844 41.5312 29.5781 41.5781 29.6719 41.5312C29.7188 41.4844 29.7188 41.3438 29.6719 41.25C29.5781 41.1562 29.4844 41.1094 29.3906 41.1562Z" fill="black"/>
</g>
<defs>
<filter id="filter0_d_16_405" x="0" y="0" width="80" height="80" filterUnits="userSpaceOnUse" color-interpolation-filters="sRGB">
<feFlood flood-opacity="0" result="BackgroundImageFix"/>
<feColorMatrix in="SourceAlpha" type="matrix" values="0 0 0 0 0 0 0 0 0 0 0 0 0 0 0 0 0 0 127 0" result="hardAlpha"/>
<feOffset dx="4" dy="4"/>
<feGaussianBlur stdDeviation="4"/>
<feComposite in2="hardAlpha" operator="out"/>
<feColorMatrix type="matrix" values="0 0 0 0 0 0 0 0 0 0 0 0 0 0 0 0 0 0 0.12 0"/>
<feBlend mode="normal" in2="BackgroundImageFix" result="effect1_dropShadow_16_405"/>
<feBlend mode="normal" in="SourceGraphic" in2="effect1_dropShadow_16_405" result="shape"/>
</filter>
</defs>
</svg>
