<svg width="80" height="80" viewBox="0 0 80 80" fill="none" xmlns="http://www.w3.org/2000/svg">
<g filter="url(#filter0_d_16_381)">
<circle cx="36" cy="36" r="32" fill="white"/>
<path d="M30.1875 45V30.9844H25.8281V45H30.1875ZM27.9844 29.1094C29.3906 29.1094 30.5156 27.9375 30.5156 26.5312C30.5156 25.1719 29.3906 24.0469 27.9844 24.0469C26.625 24.0469 25.5 25.1719 25.5 26.5312C25.5 27.9375 26.625 29.1094 27.9844 29.1094ZM46.4531 45H46.5V37.3125C46.5 33.5625 45.6562 30.6562 41.25 30.6562C39.1406 30.6562 37.7344 31.8281 37.125 32.9062H37.0781V30.9844H32.9062V45H37.2656V38.0625C37.2656 36.2344 37.5938 34.5 39.8438 34.5C42.0938 34.5 42.1406 36.5625 42.1406 38.2031V45H46.4531Z" fill="black"/>
</g>
<defs>
<filter id="filter0_d_16_381" x="0" y="0" width="80" height="80" filterUnits="userSpaceOnUse" color-interpolation-filters="sRGB">
<feFlood flood-opacity="0" result="BackgroundImageFix"/>
<feColorMatrix in="SourceAlpha" type="matrix" values="0 0 0 0 0 0 0 0 0 0 0 0 0 0 0 0 0 0 127 0" result="hardAlpha"/>
<feOffset dx="4" dy="4"/>
<feGaussianBlur stdDeviation="4"/>
<feComposite in2="hardAlpha" operator="out"/>
<feColorMatrix type="matrix" values="0 0 0 0 0 0 0 0 0 0 0 0 0 0 0 0 0 0 0.12 0"/>
<feBlend mode="normal" in2="BackgroundImageFix" result="effect1_dropShadow_16_381"/>
<feBlend mode="normal" in="SourceGraphic" in2="effect1_dropShadow_16_381" result="shape"/>
</filter>
</defs>
</svg>
